<svg version="1.1" id="Layer_1" xmlns="http://www.w3.org/2000/svg" xmlns:xlink="http://www.w3.org/1999/xlink" x="0px" y="0px"
	 width="100%" viewBox="0 0 474 474" enable-background="new 0 0 474 474" xml:space="preserve">
<path fill="#FDFEFE" opacity="1.000000" stroke="none" 
	d="
M237.000000,475.000000 
	C158.369659,475.000000 79.739326,475.000000 1.054494,475.000000 
	C1.054494,317.109314 1.054494,159.218597 1.054494,1.000000 
	C78.687790,1.000000 156.376053,1.000000 234.516983,1.352794 
	C232.972153,3.362582 231.162231,5.342475 228.949081,6.628335 
	C193.422470,27.269640 157.869308,47.865593 122.269226,68.379990 
	C99.222275,81.660690 76.089645,94.792725 52.759140,107.719032 
	C51.719315,107.345528 50.758553,106.907181 50.137215,107.196854 
	C45.397854,109.406471 40.591919,111.536736 36.122276,114.217804 
	C34.972786,114.907310 34.947418,117.470863 34.344151,119.394043 
	C34.282665,119.614594 34.032593,119.998199 33.723373,120.282928 
	C33.268368,121.873932 32.995445,123.180176 32.995041,124.486504 
	C32.975166,188.547821 32.973831,252.609146 33.011005,316.670441 
	C33.011837,318.104858 33.479904,319.539032 33.802563,321.401306 
	C33.826191,323.561859 33.777275,325.294403 33.486504,327.358551 
	C33.165291,336.748108 33.065327,345.806030 33.019123,354.864166 
	C33.005249,357.584229 33.820896,359.392029 37.388191,357.943054 
	C44.169628,361.622620 50.608620,365.230286 57.224155,369.073853 
	C57.937271,369.523895 58.473839,369.737976 59.210442,370.226257 
	C75.592133,379.701080 91.773781,388.901672 108.156715,398.373352 
	C109.641655,399.413300 110.915405,400.199249 112.210403,400.948456 
	C152.087585,424.019653 191.978500,447.067200 231.811356,470.214661 
	C233.797226,471.368652 235.281937,473.385132 237.000000,475.000000 
z"/>
<path fill="#FDFEFE" opacity="1.000000" stroke="none" 
	d="
M242.000000,1.000000 
	C319.630707,1.000000 397.261383,1.000000 474.946045,1.000000 
	C474.946045,158.890854 474.946045,316.781738 474.946045,475.000000 
	C396.978882,475.000000 318.957275,475.000000 240.362396,474.641357 
	C241.207855,473.009460 242.457001,471.444489 244.070557,470.506348 
	C271.915710,454.317047 299.821106,438.231445 327.680145,422.065887 
	C344.174652,412.494720 360.611359,402.823914 377.425873,393.124634 
	C384.554016,389.057739 391.330322,385.064178 398.070312,381.052002 
	C398.033966,381.033356 398.036194,381.114990 398.329285,381.077332 
	C399.075012,380.691467 399.527710,380.343231 399.988831,379.999481 
	C399.997223,380.003967 399.997925,379.986115 400.324127,379.939453 
	C401.888519,379.064850 403.126709,378.236908 404.302582,377.364868 
	C404.240234,377.320831 404.285614,377.466614 404.583008,377.416504 
	C405.344971,377.006653 405.809509,376.646912 406.203674,376.257629 
	C406.133301,376.228088 406.219696,376.353943 406.568420,376.287292 
	C409.744934,374.532227 412.572754,372.843781 415.590607,371.143005 
	C415.780609,371.130646 416.029602,370.842468 416.316895,370.811035 
	C417.178467,370.297791 417.752747,369.815918 418.269653,369.292480 
	C418.212280,369.250916 418.224579,369.392090 418.528015,369.357788 
	C419.303772,368.968231 419.776123,368.612915 420.137054,368.260803 
	C420.025635,368.263947 420.247528,368.289886 420.591248,368.213928 
	C427.423065,364.313751 433.911194,360.489502 440.484863,356.617981 
	C440.570404,356.570648 440.716370,356.440613 441.022949,356.226074 
	C441.787567,353.776123 442.643677,351.541138 442.646027,349.305206 
	C442.724609,274.640961 442.731140,199.976669 442.676270,125.312401 
	C442.674896,123.442909 441.863892,121.573997 441.430115,119.658401 
	C441.429688,119.611984 441.430084,119.519157 441.317078,119.210609 
	C438.893158,117.548546 436.582245,116.195023 434.130005,114.611320 
	C433.658112,114.253868 433.327545,114.126610 432.820068,113.713699 
	C423.437714,108.262314 414.232239,103.096581 404.923706,97.825897 
	C404.820587,97.720955 404.529938,97.674995 404.336731,97.399132 
	C402.767365,96.411224 401.391205,95.699181 399.771545,94.749237 
	C367.736237,76.176498 335.935822,57.856609 304.155884,39.501228 
	C284.740204,28.287189 265.329254,17.064159 246.004959,5.694247 
	C244.329376,4.708370 243.319244,2.591513 242.000000,1.000000 
z"/>
<path fill="#356D70" opacity="1.000000" stroke="none" 
	d="
M416.029602,370.842468 
	C416.029602,370.842468 415.780609,371.130646 415.152161,371.099731 
	C410.258453,370.478058 407.070404,371.579803 406.219696,376.353943 
	C406.219696,376.353943 406.133301,376.228088 405.854614,376.196930 
	C405.145844,376.599396 404.715729,377.033020 404.285645,377.466614 
	C404.285614,377.466614 404.240234,377.320831 403.921997,377.242523 
	C402.401794,378.104858 401.199890,379.045502 399.997925,379.986145 
	C399.997925,379.986115 399.997223,380.003967 399.687225,380.029327 
	C398.930237,380.408142 398.483215,380.761566 398.036194,381.114990 
	C398.036194,381.114990 398.033966,381.033356 397.656464,381.030273 
	C391.594269,383.418152 385.803802,385.596710 380.294098,388.339203 
	C378.787781,389.088989 378.124298,391.531952 377.074036,393.197906 
	C360.611359,402.823914 344.174652,412.494720 327.680145,422.065887 
	C299.821106,438.231445 271.915710,454.317047 244.070557,470.506348 
	C242.457001,471.444489 241.207855,473.009460 239.894547,474.641357 
	C239.250000,475.000000 238.500000,475.000000 237.375000,475.000000 
	C235.281937,473.385132 233.797226,471.368652 231.811356,470.214661 
	C191.978500,447.067200 152.087585,424.019653 112.210403,400.948456 
	C110.915405,400.199249 109.641655,399.413300 108.164093,397.994904 
	C107.885124,396.856262 107.932266,396.018066 107.695900,395.928589 
	C98.474762,392.436951 92.229813,384.295654 83.185822,380.421906 
	C77.870186,378.145111 73.133606,374.545319 67.893616,372.051056 
	C65.207985,370.772736 61.988575,370.615814 59.010403,369.952087 
	C58.473839,369.737976 57.937271,369.523895 57.198421,368.715942 
	C54.990353,366.372894 53.262047,363.956757 50.931866,362.987274 
	C39.405846,358.191895 36.001122,353.467133 36.000439,341.138031 
	C35.999825,330.056549 35.998474,318.975098 35.998421,307.893616 
	C35.998188,261.093597 36.019344,214.293518 35.919731,167.493698 
	C35.915840,165.664337 34.757771,163.837433 34.057533,161.545776 
	C33.995907,147.387497 34.014252,133.692856 34.032593,119.998199 
	C34.032593,119.998199 34.282665,119.614594 34.655678,119.280251 
	C41.017601,115.294403 47.006508,111.642891 52.995415,107.991386 
	C76.089645,94.792725 99.222275,81.660690 122.269226,68.379990 
	C157.869308,47.865593 193.422470,27.269640 228.949081,6.628335 
	C231.162231,5.342475 232.972153,3.362582 234.984833,1.352794 
	C237.041672,1.000000 239.083328,1.000000 241.562500,1.000000 
	C243.319244,2.591513 244.329376,4.708370 246.004959,5.694247 
	C265.329254,17.064159 284.740204,28.287189 304.155884,39.501228 
	C335.935822,57.856609 367.736237,76.176498 399.841614,95.103271 
	C401.613464,96.355118 403.071686,97.015053 404.529938,97.674995 
	C404.529938,97.674995 404.820587,97.720955 404.967377,98.175888 
	C407.543121,100.635323 410.115051,102.491798 412.373047,104.673248 
	C418.159821,110.263855 425.757721,111.704300 432.997009,113.999352 
	C433.327545,114.126610 433.658112,114.253868 433.830688,114.819801 
	C434.630310,119.643173 438.032104,119.577667 441.430084,119.519157 
	C441.430084,119.519157 441.429688,119.611984 441.288879,120.139740 
	C441.100830,122.661194 441.012390,124.654892 441.012177,126.648598 
	C441.004333,199.831253 441.008575,273.013916 440.991760,346.196564 
	C440.990967,349.611267 440.812225,353.025940 440.716370,356.440613 
	C440.716370,356.440613 440.570404,356.570648 440.080566,356.418518 
	C437.643646,356.089386 435.696564,355.912384 433.749451,355.735382 
	C433.988251,356.106598 434.227081,356.477814 434.465881,356.849030 
	C430.952454,359.199005 427.343597,361.421936 423.969452,363.957275 
	C422.482941,365.074280 421.473541,366.826233 420.247528,368.289886 
	C420.247528,368.289886 420.025635,368.263947 419.795258,368.208282 
	C419.118134,368.565796 418.671356,368.978943 418.224609,369.392090 
	C418.224579,369.392090 418.212280,369.250916 417.939270,369.215546 
	C417.120697,369.734283 416.575134,370.288361 416.029602,370.842468 
M276.993286,198.259705 
	C285.761322,198.259705 294.529358,198.259705 303.499146,198.259705 
	C304.045166,192.450211 304.537170,187.215714 305.779083,181.987564 
	C307.028870,181.578262 308.394653,181.370941 309.511169,180.729645 
	C329.220764,169.409668 348.902710,158.041519 368.584778,146.673660 
	C381.073242,139.460632 393.609192,132.326035 405.971619,124.902763 
	C407.755432,123.831635 409.769440,121.312187 409.728333,119.507385 
	C409.679352,117.355614 408.056763,114.364220 406.207550,113.265495 
	C389.260498,103.196335 372.098328,93.490105 355.034180,83.617035 
	C336.692261,73.004646 318.404816,62.298161 300.062103,51.687096 
	C287.924377,44.665554 275.639496,37.892712 263.616394,30.681902 
	C259.796753,28.391075 256.696625,27.873182 252.625519,30.056463 
	C243.864929,34.754677 234.225037,36.276161 225.316376,31.682310 
	C218.232224,28.029291 213.122940,29.811954 207.643097,33.865219 
	C206.845215,34.455387 205.970306,34.946968 205.107086,35.442455 
	C185.480469,46.708233 165.827927,57.929047 146.226959,69.239273 
	C122.424393,82.973938 98.656265,96.768410 74.897644,110.579002 
	C71.987587,112.270576 68.813423,113.408783 68.809097,118.080635 
	C68.804779,122.742462 70.145615,125.549339 74.482338,127.380478 
	C77.639114,128.713394 80.436485,130.882523 83.434830,132.608063 
	C105.124512,145.090378 126.840958,157.526306 148.505249,170.052460 
	C152.143448,172.156021 155.570114,174.625381 158.138062,176.977737 
	C150.655624,176.984634 143.171783,176.910904 135.691544,177.042847 
	C133.127090,177.088058 130.571732,177.648071 127.174599,178.169937 
	C125.603638,178.277664 124.032669,178.385406 122.223282,178.509491 
	C122.084679,180.835220 121.961922,182.894943 121.229294,184.979126 
	C120.823380,185.006241 120.417458,185.033371 119.412605,184.717682 
	C119.023361,184.404648 118.667480,184.033875 118.240082,183.786865 
	C98.221901,172.217194 78.203362,160.648071 58.155609,149.129791 
	C57.202099,148.581955 55.904541,148.076981 54.901653,148.265854 
	C50.176563,149.155823 46.967804,153.421402 46.967587,158.482941 
	C46.965378,210.120895 47.118950,261.759796 46.794762,313.395752 
	C46.748566,320.753693 48.599873,325.429108 54.823803,329.783356 
	C63.329582,335.733887 67.521286,344.595093 67.325554,355.450531 
	C67.282600,357.832367 69.415970,361.153778 71.530472,362.514893 
	C79.743752,367.802063 88.332298,372.510284 96.819511,377.367004 
	C120.670952,391.015656 144.557465,404.603058 168.398529,418.269745 
	C183.601273,426.984589 198.707550,435.868225 213.937134,444.535492 
	C221.087906,448.605072 224.979630,446.165894 224.981659,437.912994 
	C224.991959,395.936432 225.001816,353.959900 225.517181,311.680695 
	C225.733658,311.355347 225.950134,311.029999 227.061234,310.921387 
	C234.949371,310.890717 242.837494,310.860046 251.419739,311.364441 
	C251.603226,313.159576 251.939789,314.954163 251.945786,316.749908 
	C251.990097,330.082825 251.967911,343.415955 251.968201,356.749023 
	C251.968826,384.415131 251.953979,412.081299 251.985352,439.747345 
	C251.991714,445.354645 256.278290,448.082062 261.137451,445.488434 
	C267.718292,441.975891 274.246185,438.353851 280.686005,434.589264 
	C302.964325,421.565735 325.117096,408.325684 347.466766,395.426422 
	C366.842926,384.243378 386.468079,373.491547 405.827606,362.280426 
	C407.482483,361.322083 408.859070,358.334778 408.847656,356.298492 
	C408.772797,342.926392 414.708588,332.989746 425.864868,326.258728 
	C429.124908,324.291870 430.037048,322.290344 430.031189,318.766205 
	C429.941467,264.934082 429.969482,211.101776 429.969299,157.269516 
	C429.969299,156.269577 430.062378,155.256546 429.936859,154.271957 
	C429.414093,150.170303 423.200470,146.643433 419.631409,148.662247 
	C405.660675,156.564651 391.750977,164.576324 377.888184,172.666550 
	C376.052643,173.737762 374.617828,175.495590 372.116425,177.035172 
	C366.795105,176.794373 361.465271,176.230072 356.153961,176.370087 
	C335.628967,176.911163 313.547516,184.757690 310.409576,212.074081 
	C302.894958,216.206543 295.307922,220.214066 287.890869,224.514786 
	C282.826416,227.451385 277.999329,230.797287 273.091461,234.702423 
	C273.130951,234.946548 273.170441,235.190659 272.419739,235.732697 
	C265.345673,235.732697 258.271606,235.732697 251.002518,235.732697 
	C251.002518,225.467758 251.002518,215.729645 251.715469,206.059067 
	C257.533203,210.931763 262.724335,209.191238 267.899048,204.782364 
	C269.757812,203.198685 272.231628,202.357941 274.279572,200.964752 
	C275.084229,200.417389 275.491455,199.285919 276.993286,198.259705 
z"/>
<path fill="#3C6565" opacity="1.000000" stroke="none" 
	d="
M34.137497,162.009384 
	C34.757771,163.837433 35.915840,165.664337 35.919731,167.493698 
	C36.019344,214.293518 35.998188,261.093597 35.998421,307.893616 
	C35.998474,318.975098 35.999825,330.056549 36.000439,341.138031 
	C36.001122,353.467133 39.405846,358.191895 50.931866,362.987274 
	C53.262047,363.956757 54.990353,366.372894 57.021873,368.480011 
	C50.608620,365.230286 44.169628,361.622620 37.192635,357.631592 
	C35.754780,355.292114 34.165752,353.367065 34.075821,351.374359 
	C33.710052,343.269867 33.803932,335.144592 33.728363,327.026978 
	C33.777275,325.294403 33.826191,323.561859 33.897194,320.942963 
	C33.932091,281.829865 33.930130,243.603058 33.965282,205.376297 
	C33.978573,190.920624 34.077568,176.465027 34.137497,162.009384 
z"/>
<path fill="#E5F5F3" opacity="1.000000" stroke="none" 
	d="
M34.057533,161.545776 
	C34.077568,176.465027 33.978573,190.920624 33.965282,205.376297 
	C33.930130,243.603058 33.932091,281.829865 33.824650,320.514954 
	C33.479904,319.539032 33.011837,318.104858 33.011005,316.670441 
	C32.973831,252.609146 32.975166,188.547821 32.995041,124.486504 
	C32.995445,123.180176 33.268368,121.873932 33.723373,120.282928 
	C34.014252,133.692856 33.995907,147.387497 34.057533,161.545776 
z"/>
<path fill="#3C6565" opacity="1.000000" stroke="none" 
	d="
M59.210442,370.226288 
	C61.988575,370.615814 65.207985,370.772736 67.893616,372.051056 
	C73.133606,374.545319 77.870186,378.145111 83.185822,380.421906 
	C92.229813,384.295654 98.474762,392.436951 107.695900,395.928589 
	C107.932266,396.018066 107.885124,396.856262 107.962814,397.723755 
	C91.773781,388.901672 75.592133,379.701080 59.210442,370.226288 
z"/>
<path fill="#E5F5F3" opacity="1.000000" stroke="none" 
	d="
M52.759140,107.719032 
	C47.006508,111.642891 41.017601,115.294403 34.717163,119.059700 
	C34.947418,117.470863 34.972786,114.907310 36.122276,114.217804 
	C40.591919,111.536736 45.397854,109.406471 50.137215,107.196854 
	C50.758553,106.907181 51.719315,107.345528 52.759140,107.719032 
z"/>
<path fill="#E5F5F3" opacity="1.000000" stroke="none" 
	d="
M33.486504,327.358551 
	C33.803932,335.144592 33.710052,343.269867 34.075821,351.374359 
	C34.165752,353.367065 35.754780,355.292114 36.850189,357.559692 
	C33.820896,359.392029 33.005249,357.584229 33.019123,354.864166 
	C33.065327,345.806030 33.165291,336.748108 33.486504,327.358551 
z"/>
<path fill="#45696B" opacity="1.000000" stroke="none" 
	d="
M441.022949,356.226074 
	C440.812225,353.025940 440.990967,349.611267 440.991760,346.196564 
	C441.008575,273.013916 441.004333,199.831253 441.012177,126.648598 
	C441.012390,124.654892 441.100830,122.661194 441.289307,120.186157 
	C441.863892,121.573997 442.674896,123.442909 442.676270,125.312401 
	C442.731140,199.976669 442.724609,274.640961 442.646027,349.305206 
	C442.643677,351.541138 441.787567,353.776123 441.022949,356.226074 
z"/>
<path fill="#5D7F83" opacity="1.000000" stroke="none" 
	d="
M432.820068,113.713699 
	C425.757721,111.704300 418.159821,110.263855 412.373047,104.673248 
	C410.115051,102.491798 407.543121,100.635323 405.070496,98.280838 
	C414.232239,103.096581 423.437714,108.262314 432.820068,113.713699 
z"/>
<path fill="#3E6467" opacity="1.000000" stroke="none" 
	d="
M377.425873,393.124634 
	C378.124298,391.531952 378.787781,389.088989 380.294098,388.339203 
	C385.803802,385.596710 391.594269,383.418152 397.692810,381.048920 
	C391.330322,385.064178 384.554016,389.057739 377.425873,393.124634 
z"/>
<path fill="#45696B" opacity="1.000000" stroke="none" 
	d="
M420.591248,368.213928 
	C421.473541,366.826233 422.482941,365.074280 423.969452,363.957275 
	C427.343597,361.421936 430.952454,359.199005 434.465881,356.849030 
	C434.227081,356.477814 433.988251,356.106598 433.749451,355.735382 
	C435.696564,355.912384 437.643646,356.089386 439.995056,356.465820 
	C433.911194,360.489502 427.423065,364.313751 420.591248,368.213928 
z"/>
<path fill="#3E6467" opacity="1.000000" stroke="none" 
	d="
M406.568420,376.287292 
	C407.070404,371.579803 410.258453,370.478058 414.962158,371.112061 
	C412.572754,372.843781 409.744934,374.532227 406.568420,376.287292 
z"/>
<path fill="#45696B" opacity="1.000000" stroke="none" 
	d="
M441.317078,119.210609 
	C438.032104,119.577667 434.630310,119.643173 433.972046,115.049988 
	C436.582245,116.195023 438.893158,117.548546 441.317078,119.210609 
z"/>
<path fill="#5D7F83" opacity="1.000000" stroke="none" 
	d="
M404.336731,97.399132 
	C403.071686,97.015053 401.613464,96.355118 400.085144,95.341156 
	C401.391205,95.699181 402.767365,96.411224 404.336731,97.399132 
z"/>
<path fill="#3E6467" opacity="1.000000" stroke="none" 
	d="
M400.324158,379.939453 
	C401.199890,379.045502 402.401794,378.104858 403.984314,377.286560 
	C403.126709,378.236908 401.888519,379.064850 400.324158,379.939453 
z"/>
<path fill="#45696B" opacity="1.000000" stroke="none" 
	d="
M416.316895,370.811035 
	C416.575134,370.288361 417.120697,369.734283 417.996643,369.257141 
	C417.752747,369.815918 417.178467,370.297791 416.316895,370.811035 
z"/>
<path fill="#45696B" opacity="1.000000" stroke="none" 
	d="
M418.528015,369.357819 
	C418.671356,368.978943 419.118134,368.565796 419.906677,368.205139 
	C419.776123,368.612915 419.303772,368.968231 418.528015,369.357819 
z"/>
<path fill="#3E6467" opacity="1.000000" stroke="none" 
	d="
M404.583038,377.416504 
	C404.715729,377.033020 405.145844,376.599396 405.924988,376.226471 
	C405.809509,376.646912 405.344971,377.006653 404.583038,377.416504 
z"/>
<path fill="#3E6467" opacity="1.000000" stroke="none" 
	d="
M398.329285,381.077332 
	C398.483215,380.761566 398.930237,380.408142 399.678833,380.024841 
	C399.527710,380.343231 399.075012,380.691467 398.329285,381.077332 
z"/>
<path fill="#469194" opacity="1.000000" stroke="none" 
	d="
M159.094528,176.925720 
	C155.570114,174.625381 152.143448,172.156021 148.505249,170.052460 
	C126.840958,157.526306 105.124512,145.090378 83.434830,132.608063 
	C80.436485,130.882523 77.639114,128.713394 74.482338,127.380478 
	C70.145615,125.549339 68.804779,122.742462 68.809097,118.080635 
	C68.813423,113.408783 71.987587,112.270576 74.897644,110.579002 
	C98.656265,96.768410 122.424393,82.973938 146.226959,69.239273 
	C165.827927,57.929047 185.480469,46.708233 205.107086,35.442455 
	C205.970306,34.946968 206.845215,34.455387 207.643097,33.865219 
	C213.122940,29.811954 218.232224,28.029291 225.316376,31.682310 
	C234.225037,36.276161 243.864929,34.754677 252.625519,30.056463 
	C256.696625,27.873182 259.796753,28.391075 263.616394,30.681902 
	C275.639496,37.892712 287.924377,44.665554 300.062103,51.687096 
	C318.404816,62.298161 336.692261,73.004646 355.034180,83.617035 
	C372.098328,93.490105 389.260498,103.196335 406.207550,113.265495 
	C408.056763,114.364220 409.679352,117.355614 409.728333,119.507385 
	C409.769440,121.312187 407.755432,123.831635 405.971619,124.902763 
	C393.609192,132.326035 381.073242,139.460632 368.584778,146.673660 
	C348.902710,158.041519 329.220764,169.409668 309.511169,180.729645 
	C308.394653,181.370941 307.028870,181.578262 305.312378,181.596634 
	C304.056366,176.571823 299.927551,180.089767 297.728088,178.002472 
	C296.898743,177.425049 296.283051,177.046265 295.666748,177.045258 
	C273.902893,177.009720 252.138916,176.987534 230.375336,177.069214 
	C229.277603,177.073334 228.183395,178.018005 226.966064,178.725311 
	C226.552612,179.290161 226.260651,179.654480 225.675537,180.313629 
	C225.250015,189.066910 225.117645,197.525360 224.976593,206.226013 
	C224.967896,206.468231 224.959488,206.952896 224.949509,206.953934 
	C224.939529,206.954971 224.928177,206.937561 224.554199,206.948273 
	C221.575302,207.318375 218.970383,207.677750 216.177612,207.759659 
	C211.513306,191.340744 200.148621,182.923721 184.336868,180.158554 
	C176.677917,178.819138 168.803116,178.714066 160.885834,177.785507 
	C160.195251,177.322510 159.644882,177.124115 159.094528,176.925720 
z"/>
<path fill="#479194" opacity="1.000000" stroke="none" 
	d="
M372.997467,176.935425 
	C374.617828,175.495590 376.052643,173.737762 377.888184,172.666550 
	C391.750977,164.576324 405.660675,156.564651 419.631409,148.662247 
	C423.200470,146.643433 429.414093,150.170303 429.936859,154.271957 
	C430.062378,155.256546 429.969299,156.269577 429.969299,157.269516 
	C429.969482,211.101776 429.941467,264.934082 430.031189,318.766205 
	C430.037048,322.290344 429.124908,324.291870 425.864868,326.258728 
	C414.708588,332.989746 408.772797,342.926392 408.847656,356.298492 
	C408.859070,358.334778 407.482483,361.322083 405.827606,362.280426 
	C386.468079,373.491547 366.842926,384.243378 347.466766,395.426422 
	C325.117096,408.325684 302.964325,421.565735 280.686005,434.589264 
	C274.246185,438.353851 267.718292,441.975891 261.137451,445.488434 
	C256.278290,448.082062 251.991714,445.354645 251.985352,439.747345 
	C251.953979,412.081299 251.968826,384.415131 251.968201,356.749023 
	C251.967911,343.415955 251.990097,330.082825 251.945786,316.749908 
	C251.939789,314.954163 251.603226,313.159576 251.078156,310.880646 
	C250.736572,310.396851 250.953064,310.022186 251.260498,309.733215 
	C251.724869,296.635864 251.881790,283.827423 252.302399,270.808197 
	C253.184814,270.079010 253.762482,269.499512 254.428711,269.051849 
	C259.914215,265.366089 265.423553,261.712006 268.452271,255.106110 
	C279.482574,255.038010 290.047943,255.038010 301.699707,255.038010 
	C301.069244,248.002441 300.506378,241.721329 299.798706,235.100586 
	C298.078552,234.507828 296.505646,234.055405 294.927338,234.035675 
	C287.641083,233.944611 280.353333,233.974014 273.066101,233.960205 
	C277.999329,230.797287 282.826416,227.451385 287.890869,224.514786 
	C295.307922,220.214066 302.894958,216.206543 310.888062,212.473480 
	C312.294342,218.081467 312.432770,223.595139 314.304871,228.438736 
	C319.038727,240.686340 329.579712,246.292786 341.358124,250.047531 
	C349.593750,252.672882 357.978912,254.898254 366.047363,257.960724 
	C375.450989,261.529999 378.814758,267.188751 378.096771,276.315613 
	C377.445740,284.591125 372.539551,289.912964 363.176147,292.048096 
	C354.171875,294.101349 345.253876,292.794464 336.579559,290.266907 
	C329.943329,288.333252 323.520203,285.668304 316.685913,283.215057 
	C315.218842,287.867798 314.062042,292.724304 312.144196,297.259003 
	C310.483185,301.186371 311.887817,302.837189 315.278961,304.421051 
	C332.230103,312.338165 349.957733,315.033264 368.318451,311.669464 
	C387.823700,308.096008 401.731689,297.642212 403.549377,276.409241 
	C404.094849,278.448334 404.424103,280.188904 404.753357,281.929504 
	C405.277985,281.865143 405.802582,281.800781 406.327209,281.736420 
	C407.414886,275.290314 408.630066,268.840942 405.239807,262.172943 
	C404.226685,262.960541 403.478912,263.541870 402.524963,263.822144 
	C399.896393,251.298828 392.069336,243.440079 381.059540,238.953796 
	C370.000854,234.447586 358.511108,231.009109 347.272217,226.932007 
	C339.334503,224.052475 336.430511,219.433151 337.007751,211.349243 
	C337.563324,203.568314 341.972473,198.692490 349.941162,197.071060 
	C359.651886,195.095123 369.158173,196.350281 378.511810,199.109207 
	C383.077271,200.455841 387.530670,202.182327 392.197113,203.792908 
	C394.027710,199.414658 395.407349,195.092300 397.572815,191.208038 
	C399.999725,186.854843 398.481018,184.839279 394.347504,183.564972 
	C387.226349,181.369644 380.113678,179.146759 372.997467,176.935425 
M405.264099,257.817017 
	C405.377441,257.973633 405.490784,258.130249 405.604187,258.286835 
	C405.581421,258.069000 405.558655,257.851196 405.264099,257.817017 
z"/>
<path fill="#469194" opacity="1.000000" stroke="none" 
	d="
M225.011826,311.983337 
	C225.001816,353.959900 224.991959,395.936432 224.981659,437.912994 
	C224.979630,446.165894 221.087906,448.605072 213.937134,444.535492 
	C198.707550,435.868225 183.601273,426.984589 168.398529,418.269745 
	C144.557465,404.603058 120.670952,391.015656 96.819511,377.367004 
	C88.332298,372.510284 79.743752,367.802063 71.530472,362.514893 
	C69.415970,361.153778 67.282600,357.832367 67.325554,355.450531 
	C67.521286,344.595093 63.329582,335.733887 54.823803,329.783356 
	C48.599873,325.429108 46.748566,320.753693 46.794762,313.395752 
	C47.118950,261.759796 46.965378,210.120895 46.967587,158.482941 
	C46.967804,153.421402 50.176563,149.155823 54.901653,148.265854 
	C55.904541,148.076981 57.202099,148.581955 58.155609,149.129791 
	C78.203362,160.648071 98.221901,172.217194 118.240082,183.786865 
	C118.667480,184.033875 119.023361,184.404648 119.711273,185.351013 
	C120.009163,225.085251 119.996452,264.186188 120.040138,303.287079 
	C120.042511,305.411438 120.230927,307.620056 120.831093,309.641479 
	C122.030136,313.679932 125.280411,314.255035 129.474915,311.214600 
	C134.957092,311.190002 139.980392,311.248810 145.061127,311.582245 
	C147.569885,311.728577 149.219376,308.125183 149.172577,305.185059 
	C148.958984,291.766235 148.997406,278.341980 149.152878,264.922058 
	C149.162842,264.062622 150.814819,262.699158 151.892670,262.472565 
	C155.204056,261.776367 158.607742,261.519165 162.410858,261.019684 
	C164.901672,260.982239 166.957199,261.016479 169.306656,261.332275 
	C176.540726,260.973633 183.491745,260.423645 190.408478,259.589447 
	C191.371185,259.473358 192.165054,257.957367 193.234406,256.884583 
	C193.963562,256.508728 194.495361,256.337738 195.283997,256.404541 
	C196.554855,255.957520 197.568863,255.272751 198.609894,254.612396 
	C198.636887,254.636810 198.677979,254.576691 199.067886,254.702362 
	C201.557419,254.664337 204.011490,254.936234 203.600922,251.558044 
	C203.713791,251.567307 203.724243,251.793564 204.103485,251.869720 
	C205.920761,253.232971 207.959976,254.245880 208.693527,255.854248 
	C212.003357,263.111542 217.983261,267.107056 224.940460,270.564453 
	C224.972015,284.678802 224.991928,298.331055 225.011826,311.983337 
M68.530136,310.362671 
	C71.206734,313.533875 71.533699,310.282257 72.529465,308.893188 
	C73.695007,307.267303 74.843498,305.629150 76.280579,304.642792 
	C75.658730,307.053345 75.036873,309.463898 74.130699,312.976624 
	C81.103371,312.976624 87.994965,313.025299 94.883545,312.903351 
	C95.593727,312.890808 96.285904,311.860626 97.849617,311.102356 
	C99.440422,310.974121 101.031227,310.845886 102.775764,310.705231 
	C102.841118,309.330566 102.927704,308.355225 102.928062,307.379852 
	C102.943619,265.792938 102.959969,224.206009 102.924194,182.619125 
	C102.922974,181.197220 102.389084,179.775787 101.801491,177.635941 
	C101.468399,177.277435 101.131523,176.602921 100.802780,176.606888 
	C93.605896,176.693298 86.408562,176.820312 79.217545,177.099640 
	C78.837181,177.114410 78.511627,178.540192 78.257782,179.675339 
	C78.257782,179.675339 78.075043,180.007339 77.384445,180.003372 
	C76.924408,180.001022 76.464371,179.998688 75.991913,179.500626 
	C75.991913,179.500626 75.981094,179.004898 75.975052,178.541275 
	C75.647316,178.363449 75.319580,178.185638 74.192955,178.003342 
	C73.127724,178.002426 72.062485,178.001526 70.164330,178.005005 
	C67.299263,177.719162 66.950233,179.446487 66.978645,181.742966 
	C67.053673,187.806290 67.001427,193.871185 67.001366,199.935455 
	C67.001053,231.020370 67.073082,262.105652 66.918716,293.189789 
	C66.897171,297.528259 65.575600,301.846954 65.245056,306.204346 
	C65.127487,307.754272 62.923489,311.823761 68.530136,310.362671 
M107.000000,229.500000 
	C107.000000,214.746323 107.000000,199.992661 107.000000,185.238983 
	C102.920998,188.893661 103.348473,301.784912 107.000000,305.344208 
	C107.000000,279.789612 107.000000,255.144806 107.000000,229.500000 
z"/>
<path fill="#F8FCFC" opacity="1.000000" stroke="none" 
	d="
M145.003677,311.307617 
	C139.980392,311.248810 134.957092,311.190002 129.033661,311.130188 
	C126.212585,311.014923 124.291656,310.900726 122.052994,310.767609 
	C122.052994,308.262695 122.053040,306.287231 122.052979,304.311768 
	C122.052292,280.669983 122.077271,257.028137 122.042000,233.386398 
	C122.017914,217.242416 121.909744,201.098587 121.839172,184.954681 
	C121.961922,182.894943 122.084679,180.835220 122.223282,178.509491 
	C124.032669,178.385406 125.603638,178.277664 128.051697,178.172760 
	C139.627869,178.133774 150.326950,178.091949 161.026031,178.050125 
	C168.803116,178.714066 176.677917,178.819138 184.336868,180.158554 
	C200.148621,182.923721 211.513306,191.340744 216.140381,208.228729 
	C218.615311,225.159607 215.550751,239.762360 203.724243,251.793564 
	C203.724243,251.793564 203.713791,251.567307 203.287491,251.610779 
	C201.466782,252.628387 200.072388,253.602539 198.677979,254.576691 
	C198.677979,254.576691 198.636887,254.636810 198.290802,254.652679 
	C196.972183,255.167938 195.999664,255.667313 195.027161,256.166748 
	C194.495361,256.337738 193.963562,256.508728 192.842178,256.900879 
	C184.505981,258.431580 176.759354,259.741150 169.012726,261.050720 
	C166.957199,261.016479 164.901672,260.982239 161.970245,260.920197 
	C156.219574,260.892365 151.344803,260.892365 146.055130,260.892365 
	C146.055130,276.032410 146.088760,291.098175 146.008896,306.163300 
	C145.999786,307.879791 145.354156,309.592926 145.003677,311.307617 
M170.050873,196.917618 
	C163.153473,196.851807 156.254791,196.844055 149.359344,196.690536 
	C146.746674,196.632385 145.570709,197.419205 146.348312,200.563828 
	C146.348312,200.563828 146.412033,201.030121 146.135529,201.781158 
	C146.135529,215.379608 146.135529,228.978073 146.135529,242.938614 
	C148.746872,242.938614 150.866501,242.938614 153.661667,243.048920 
	C154.114288,243.007217 154.566925,242.965530 155.663132,243.081436 
	C156.098724,243.031448 156.534302,242.981445 157.898773,243.064529 
	C161.530319,243.033920 165.168884,243.137482 168.792160,242.948486 
	C181.585083,242.281204 188.544617,237.695770 192.171982,227.154144 
	C196.727524,210.293213 188.023972,197.962021 170.050873,196.917618 
z"/>
<path fill="#F8FCFC" opacity="1.000000" stroke="none" 
	d="
M403.333160,276.110779 
	C401.731689,297.642212 387.823700,308.096008 368.318451,311.669464 
	C349.957733,315.033264 332.230103,312.338165 315.278961,304.421051 
	C311.887817,302.837189 310.483185,301.186371 312.144196,297.259003 
	C314.062042,292.724304 315.218842,287.867798 316.685913,283.215057 
	C323.520203,285.668304 329.943329,288.333252 336.579559,290.266907 
	C345.253876,292.794464 354.171875,294.101349 363.176147,292.048096 
	C372.539551,289.912964 377.445740,284.591125 378.096771,276.315613 
	C378.814758,267.188751 375.450989,261.529999 366.047363,257.960724 
	C357.978912,254.898254 349.593750,252.672882 341.358124,250.047531 
	C329.579712,246.292786 319.038727,240.686340 314.304871,228.438736 
	C312.432770,223.595139 312.294342,218.081467 311.257935,212.468124 
	C313.547516,184.757690 335.628967,176.911163 356.153961,176.370087 
	C361.465271,176.230072 366.795105,176.794373 372.556946,176.985306 
	C380.113678,179.146759 387.226349,181.369644 394.347504,183.564972 
	C398.481018,184.839279 399.999725,186.854843 397.572815,191.208038 
	C395.407349,195.092300 394.027710,199.414658 392.197113,203.792908 
	C387.530670,202.182327 383.077271,200.455841 378.511810,199.109207 
	C369.158173,196.350281 359.651886,195.095123 349.941162,197.071060 
	C341.972473,198.692490 337.563324,203.568314 337.007751,211.349243 
	C336.430511,219.433151 339.334503,224.052475 347.272217,226.932007 
	C358.511108,231.009109 370.000854,234.447586 381.059540,238.953796 
	C392.069336,243.440079 399.896393,251.298828 402.506104,264.046692 
	C402.693451,264.572296 402.905273,264.970459 402.861389,265.385590 
	C402.975128,267.172821 403.132782,268.544952 403.224121,270.354980 
	C403.216278,272.565521 403.274719,274.338165 403.333160,276.110779 
z"/>
<path fill="#F7FBFB" opacity="1.000000" stroke="none" 
	d="
M299.943481,235.440216 
	C300.506378,241.721329 301.069244,248.002441 301.699707,255.038010 
	C290.047943,255.038010 279.482574,255.038010 267.989410,255.027756 
	C261.785980,255.017502 256.510315,255.017502 250.967468,255.017502 
	C250.967468,260.773926 250.967468,265.889252 250.871246,271.464691 
	C250.834381,284.623932 250.893723,297.323059 250.953064,310.022186 
	C250.953064,310.022186 250.736572,310.396851 250.731110,310.613098 
	C242.837494,310.860046 234.949371,310.890717 226.663330,310.367004 
	C226.269608,297.333679 226.302536,284.854675 226.271683,272.375854 
	C226.217804,250.585068 226.124695,228.794388 226.117126,206.749878 
	C226.134918,206.328461 226.083618,206.160858 226.111267,205.530426 
	C226.116379,196.717987 226.042542,188.368408 225.968689,180.018799 
	C226.260651,179.654480 226.552612,179.290161 227.395386,178.740692 
	C251.277939,178.496124 274.609711,178.436707 297.941467,178.377289 
	C299.927551,180.089767 304.056366,176.571823 304.937378,181.593460 
	C304.537170,187.215714 304.045166,192.450211 303.499146,198.259705 
	C294.529358,198.259705 285.761322,198.259705 276.077942,198.213989 
	C267.215820,198.168274 259.269073,198.168274 251.002518,198.168274 
	C251.002518,201.098312 251.002518,203.544922 251.002518,205.991516 
	C251.002518,215.729645 251.002518,225.467758 251.002518,235.732697 
	C258.271606,235.732697 265.345673,235.732697 273.207977,235.661697 
	C282.645294,235.540543 291.294403,235.490387 299.943481,235.440216 
z"/>
<path fill="#5E9192" opacity="1.000000" stroke="none" 
	d="
M121.534233,184.966904 
	C121.909744,201.098587 122.017914,217.242416 122.042000,233.386398 
	C122.077271,257.028137 122.052292,280.669983 122.052979,304.311768 
	C122.053040,306.287231 122.052994,308.262695 122.052994,310.767609 
	C124.291656,310.900726 126.212585,311.014923 128.574768,311.213531 
	C125.280411,314.255035 122.030136,313.679932 120.831093,309.641479 
	C120.230927,307.620056 120.042511,305.411438 120.040138,303.287079 
	C119.996452,264.186188 120.009163,225.085251 120.010742,185.522400 
	C120.417458,185.033371 120.823380,185.006241 121.534233,184.966904 
z"/>
<path fill="#509090" opacity="1.000000" stroke="none" 
	d="
M251.358994,206.025299 
	C251.002518,203.544922 251.002518,201.098312 251.002518,198.168274 
	C259.269073,198.168274 267.215820,198.168274 275.621124,198.294357 
	C275.491455,199.285919 275.084229,200.417389 274.279572,200.964752 
	C272.231628,202.357941 269.757812,203.198685 267.899048,204.782364 
	C262.724335,209.191238 257.533203,210.931763 251.358994,206.025299 
z"/>
<path fill="#386262" opacity="1.000000" stroke="none" 
	d="
M226.048035,207.003677 
	C226.124695,228.794388 226.217804,250.585068 226.271683,272.375854 
	C226.302536,284.854675 226.269608,297.333679 226.216019,310.258606 
	C225.950134,311.029999 225.733658,311.355347 225.264496,311.832031 
	C224.991928,298.331055 224.972015,284.678802 224.966202,270.085236 
	C224.962921,248.408493 224.945557,227.673019 224.928192,206.937561 
	C224.928177,206.937561 224.939529,206.954971 225.221756,206.972885 
	C225.685333,206.995087 225.866699,206.999390 226.048035,207.003677 
z"/>
<path fill="#488482" opacity="1.000000" stroke="none" 
	d="
M299.798706,235.100586 
	C291.294403,235.490387 282.645294,235.540543 273.603088,235.512726 
	C273.170441,235.190659 273.130951,234.946548 273.078796,234.331314 
	C280.353333,233.974014 287.641083,233.944611 294.927338,234.035675 
	C296.505646,234.055405 298.078552,234.507828 299.798706,235.100586 
z"/>
<path fill="#37605D" opacity="1.000000" stroke="none" 
	d="
M160.885834,177.785507 
	C150.326950,178.091949 139.627869,178.133774 128.470490,178.074249 
	C130.571732,177.648071 133.127090,177.088058 135.691544,177.042847 
	C143.171783,176.910904 150.655624,176.984634 158.616302,176.951721 
	C159.644882,177.124115 160.195251,177.322510 160.885834,177.785507 
z"/>
<path fill="#366D6F" opacity="1.000000" stroke="none" 
	d="
M224.554214,206.948273 
	C224.945557,227.673019 224.962921,248.408493 224.954559,269.623169 
	C217.983261,267.107056 212.003357,263.111542 208.693527,255.854248 
	C207.959976,254.245880 205.920761,253.232971 204.103485,251.869720 
	C215.550751,239.762360 218.615311,225.159607 216.328217,208.506195 
	C218.970383,207.677750 221.575302,207.318375 224.554214,206.948273 
z"/>
<path fill="#448882" opacity="1.000000" stroke="none" 
	d="
M297.728088,178.002472 
	C274.609711,178.436707 251.277939,178.496124 227.516861,178.540161 
	C228.183395,178.018005 229.277603,177.073334 230.375336,177.069214 
	C252.138916,176.987534 273.902893,177.009720 295.666748,177.045258 
	C296.283051,177.046265 296.898743,177.425049 297.728088,178.002472 
z"/>
<path fill="#4F8180" opacity="1.000000" stroke="none" 
	d="
M225.675552,180.313629 
	C226.042542,188.368408 226.116379,196.717987 225.849426,205.530472 
	C225.334152,205.990173 225.159698,205.987000 224.985260,205.983810 
	C225.117645,197.525360 225.250015,189.066910 225.675552,180.313629 
z"/>
<path fill="#366D6F" opacity="1.000000" stroke="none" 
	d="
M224.976578,206.226013 
	C225.159698,205.987000 225.334152,205.990173 225.770477,205.993317 
	C226.083618,206.160858 226.134918,206.328461 226.117142,206.749878 
	C225.866699,206.999390 225.685333,206.995087 225.231735,206.971848 
	C224.959488,206.952896 224.967896,206.468231 224.976578,206.226013 
z"/>
<path fill="#376D6E" opacity="1.000000" stroke="none" 
	d="
M250.967468,271.004578 
	C250.967468,265.889252 250.967468,260.773926 250.967468,255.017502 
	C256.510315,255.017502 261.785980,255.017502 267.524475,255.095856 
	C265.423553,261.712006 259.914215,265.366089 254.428711,269.051849 
	C253.762482,269.499512 253.184814,270.079010 252.034409,270.802673 
	C251.324326,271.006805 251.145905,271.005707 250.967468,271.004578 
z"/>
<path fill="#3D968E" opacity="1.000000" stroke="none" 
	d="
M402.905273,264.970459 
	C402.905273,264.970459 402.693451,264.572296 402.712280,264.347748 
	C403.478912,263.541870 404.226685,262.960541 405.239807,262.172943 
	C408.630066,268.840942 407.414886,275.290314 406.327209,281.736420 
	C405.802582,281.800781 405.277985,281.865143 404.753357,281.929504 
	C404.424103,280.188904 404.094849,278.448334 403.549377,276.409241 
	C403.274719,274.338165 403.216278,272.565521 403.440430,270.090057 
	C403.450439,267.914948 403.177856,266.442719 402.905273,264.970459 
z"/>
<path fill="#437473" opacity="1.000000" stroke="none" 
	d="
M250.871246,271.464691 
	C251.145905,271.005707 251.324326,271.006805 251.770721,271.013489 
	C251.881790,283.827423 251.724869,296.635864 251.260498,309.733215 
	C250.893723,297.323059 250.834381,284.623932 250.871246,271.464691 
z"/>
<path fill="#3D968E" opacity="1.000000" stroke="none" 
	d="
M405.400024,257.725189 
	C405.558655,257.851196 405.581421,258.069000 405.604187,258.286835 
	C405.490784,258.130249 405.377441,257.973633 405.400024,257.725189 
z"/>
<path fill="#F7FCFC" opacity="1.000000" stroke="none" 
	d="
M78.075043,180.007339 
	C78.075043,180.007339 78.257782,179.675339 78.648483,179.353058 
	C86.727280,178.805222 94.415375,178.579666 102.103470,178.354126 
	C102.389084,179.775787 102.922974,181.197220 102.924194,182.619125 
	C102.959969,224.206009 102.943619,265.792938 102.928062,307.379852 
	C102.927704,308.355225 102.841118,309.330566 102.775764,310.705231 
	C101.031227,310.845886 99.440422,310.974121 96.968307,311.133179 
	C89.988937,311.164032 83.890869,311.164032 78.018158,311.164032 
	C78.140152,308.909210 78.290237,307.430420 78.289719,305.951721 
	C78.280907,280.793121 78.266518,255.634491 78.225441,230.475891 
	C78.197968,213.653015 78.126709,196.830185 78.075043,180.007339 
z"/>
<path fill="#4C8E93" opacity="1.000000" stroke="none" 
	d="
M75.999390,303.996338 
	C74.843498,305.629150 73.695007,307.267303 72.529465,308.893188 
	C71.533699,310.282257 71.206734,313.533875 68.264458,309.784576 
	C72.069611,301.750854 70.986542,293.631042 70.991119,285.665161 
	C71.011765,249.776978 70.998375,213.888794 70.997253,178.000610 
	C72.062485,178.001526 73.127724,178.002426 74.701172,178.222092 
	C75.405281,178.712784 75.662514,178.900803 75.981094,179.004898 
	C75.981094,179.004898 75.991913,179.500626 75.995377,180.081177 
	C76.000999,181.105225 76.003159,181.548706 75.719055,182.264404 
	C74.996269,185.094971 74.363045,187.643188 74.230217,190.217239 
	C74.183922,191.114334 75.373390,192.075211 75.999710,193.475174 
	C76.000404,230.627701 75.999893,267.312012 75.999390,303.996338 
z"/>
<path fill="#3D978E" opacity="1.000000" stroke="none" 
	d="
M70.580795,178.002808 
	C70.998375,213.888794 71.011765,249.776978 70.991119,285.665161 
	C70.986542,293.631042 72.069611,301.750854 67.997696,309.603241 
	C62.923489,311.823761 65.127487,307.754272 65.245056,306.204346 
	C65.575600,301.846954 66.897171,297.528259 66.918716,293.189789 
	C67.073082,262.105652 67.001053,231.020370 67.001366,199.935455 
	C67.001427,193.871185 67.053673,187.806290 66.978645,181.742966 
	C66.950233,179.446487 67.299263,177.719162 70.580795,178.002808 
z"/>
<path fill="#40948E" opacity="1.000000" stroke="none" 
	d="
M107.000000,230.000000 
	C107.000000,255.144806 107.000000,279.789612 107.000000,305.344208 
	C103.348473,301.784912 102.920998,188.893661 107.000000,185.238983 
	C107.000000,199.992661 107.000000,214.746323 107.000000,230.000000 
z"/>
<path fill="#428A89" opacity="1.000000" stroke="none" 
	d="
M76.005310,181.992203 
	C76.003159,181.548706 76.000999,181.105225 76.001587,180.329041 
	C76.464371,179.998688 76.924408,180.001022 77.729744,180.005356 
	C78.126709,196.830185 78.197968,213.653015 78.225441,230.475891 
	C78.266518,255.634491 78.280907,280.793121 78.289719,305.951721 
	C78.290237,307.430420 78.140152,308.909210 78.018158,311.164032 
	C83.890869,311.164032 89.988937,311.164032 96.536720,311.233337 
	C96.285904,311.860626 95.593727,312.890808 94.883545,312.903351 
	C87.994965,313.025299 81.103371,312.976624 74.130699,312.976624 
	C75.036873,309.463898 75.658730,307.053345 76.139984,304.319580 
	C75.999893,267.312012 76.000404,230.627701 76.290207,193.189285 
	C76.388100,188.954193 76.196709,185.473190 76.005310,181.992203 
z"/>
<path fill="#5E9192" opacity="1.000000" stroke="none" 
	d="
M145.061127,311.582245 
	C145.354156,309.592926 145.999786,307.879791 146.008896,306.163300 
	C146.088760,291.098175 146.055130,276.032410 146.055130,260.892365 
	C151.344803,260.892365 156.219574,260.892365 161.534943,260.991852 
	C158.607742,261.519165 155.204056,261.776367 151.892670,262.472565 
	C150.814819,262.699158 149.162842,264.062622 149.152878,264.922058 
	C148.997406,278.341980 148.958984,291.766235 149.172577,305.185059 
	C149.219376,308.125183 147.569885,311.728577 145.061127,311.582245 
z"/>
<path fill="#468983" opacity="1.000000" stroke="none" 
	d="
M101.952484,177.995026 
	C94.415375,178.579666 86.727280,178.805222 78.599869,179.169922 
	C78.511627,178.540192 78.837181,177.114410 79.217545,177.099640 
	C86.408562,176.820312 93.605896,176.693298 100.802780,176.606888 
	C101.131523,176.602921 101.468399,177.277435 101.952484,177.995026 
z"/>
<path fill="#5E9192" opacity="1.000000" stroke="none" 
	d="
M169.306656,261.332275 
	C176.759354,259.741150 184.505981,258.431580 192.644836,257.105713 
	C192.165054,257.957367 191.371185,259.473358 190.408478,259.589447 
	C183.491745,260.423645 176.540726,260.973633 169.306656,261.332275 
z"/>
<path fill="#5E9192" opacity="1.000000" stroke="none" 
	d="
M199.067886,254.702362 
	C200.072388,253.602539 201.466782,252.628387 203.174622,251.601501 
	C204.011490,254.936234 201.557419,254.664337 199.067886,254.702362 
z"/>
<path fill="#5E9192" opacity="1.000000" stroke="none" 
	d="
M195.283997,256.404510 
	C195.999664,255.667313 196.972183,255.167938 198.263794,254.628265 
	C197.568863,255.272751 196.554855,255.957520 195.283997,256.404510 
z"/>
<path fill="#428A89" opacity="1.000000" stroke="none" 
	d="
M75.978073,178.773087 
	C75.662514,178.900803 75.405281,178.712784 75.100616,178.224335 
	C75.319580,178.185638 75.647316,178.363449 75.978073,178.773087 
z"/>
<path fill="#469293" opacity="1.000000" stroke="none" 
	d="
M191.838593,227.919098 
	C188.544617,237.695770 181.585083,242.281204 168.792160,242.948486 
	C165.168884,243.137482 161.530319,243.033920 157.290833,242.786789 
	C156.128448,242.647308 155.574005,242.785583 155.019547,242.923843 
	C154.566925,242.965530 154.114288,243.007217 153.091690,242.715485 
	C148.707993,241.391846 147.686508,238.973434 147.892548,235.100723 
	C148.478226,224.091568 148.649185,213.060379 149.341492,202.067780 
	C157.984299,206.753418 166.389679,211.209885 174.513626,216.130981 
	C180.479675,219.744949 186.076965,223.967667 191.838593,227.919098 
z"/>
<path fill="#366E70" opacity="1.000000" stroke="none" 
	d="
M192.005280,227.536621 
	C186.076965,223.967667 180.479675,219.744949 174.513626,216.130981 
	C166.389679,211.209885 157.984299,206.753418 149.106842,201.787384 
	C147.813416,201.328079 147.112732,201.179108 146.412033,201.030121 
	C146.412033,201.030121 146.348312,200.563828 146.839844,200.188751 
	C149.489410,199.210175 151.617340,198.261749 153.811325,198.070374 
	C159.514267,197.572922 165.246246,197.408020 170.966629,197.110413 
	C188.023972,197.962021 196.727524,210.293213 192.005280,227.536621 
z"/>
<path fill="#619393" opacity="1.000000" stroke="none" 
	d="
M146.273773,201.405640 
	C147.112732,201.179108 147.813416,201.328079 148.748749,201.757446 
	C148.649185,213.060379 148.478226,224.091568 147.892548,235.100723 
	C147.686508,238.973434 148.707993,241.391846 152.753922,242.660324 
	C150.866501,242.938614 148.746872,242.938614 146.135529,242.938614 
	C146.135529,228.978073 146.135529,215.379608 146.273773,201.405640 
z"/>
<path fill="#36605D" opacity="1.000000" stroke="none" 
	d="
M170.508759,197.014008 
	C165.246246,197.408020 159.514267,197.572922 153.811325,198.070374 
	C151.617340,198.261749 149.489410,199.210175 146.934937,199.973495 
	C145.570709,197.419205 146.746674,196.632385 149.359344,196.690536 
	C156.254791,196.844055 163.153473,196.851807 170.508759,197.014008 
z"/>
<path fill="#619393" opacity="1.000000" stroke="none" 
	d="
M155.341339,243.002655 
	C155.574005,242.785583 156.128448,242.647308 156.826401,242.720245 
	C156.534302,242.981445 156.098724,243.031448 155.341339,243.002655 
z"/>
<path fill="#479194" opacity="1.000000" stroke="none" 
	d="
M402.861359,265.385590 
	C403.177856,266.442719 403.450439,267.914948 403.506714,269.652130 
	C403.132782,268.544952 402.975128,267.172821 402.861359,265.385590 
z"/>
<path fill="#469194" opacity="1.000000" stroke="none" 
	d="
M75.719055,182.264404 
	C76.196709,185.473190 76.388100,188.954193 76.289001,192.721069 
	C75.373390,192.075211 74.183922,191.114334 74.230217,190.217239 
	C74.363045,187.643188 74.996269,185.094971 75.719055,182.264404 
z"/>
</svg>