<svg version="1.1" id="Layer_1" xmlns="http://www.w3.org/2000/svg" xmlns:xlink="http://www.w3.org/1999/xlink" x="0px" y="0px"
	 width="100%" viewBox="0 0 474 474" enable-background="new 0 0 474 474" xml:space="preserve">
<path fill="none" opacity="1.000000" stroke="#000000" stroke-linecap="round" stroke-linejoin="round" stroke-width="10.000000"
	d="
M5.500000,299.500000 
	C5.500000,261.166656 5.505273,222.833328 5.489633,184.500000 
	C5.488428,181.547882 5.397210,178.613708 7.995097,176.292374 
	C12.332624,176.706055 14.403336,180.182617 16.410751,183.062210 
	C24.789341,195.081161 32.806297,207.351578 41.005840,219.496063 
	C56.318859,242.176437 71.489891,264.955475 87.045242,287.468750 
	C106.021767,314.933472 125.333336,342.166656 144.500000,369.500000 
"/>
<path fill="none" opacity="1.000000" stroke="#000000" stroke-linecap="round" stroke-linejoin="round" stroke-width="9.000000"
	d="
M199.000000,174.000000 
	C176.000000,174.000000 152.999573,173.929596 130.000397,174.066986 
	C126.011185,174.090805 121.063515,171.461624 118.228088,175.174194 
	C115.993568,178.099976 117.566383,182.669998 117.538376,186.500275 
	C117.439682,199.999557 117.500000,213.500000 117.500000,227.000000 
	C117.500000,249.000000 117.500000,271.000000 117.500000,293.000000 
	C117.500000,294.917114 117.500000,296.834229 117.500000,299.271545 
	C131.617950,300.764374 145.329605,299.784973 159.000504,299.961334 
	C172.664902,300.137634 186.333328,300.000000 200.000000,300.000000 
"/>
<path fill="none" opacity="1.000000" stroke="#000000" stroke-linecap="round" stroke-linejoin="round" stroke-width="8.000000"
	d="
M358.500000,102.499992 
	C340.666656,126.833328 322.724579,151.087967 305.036591,175.526474 
	C292.348450,193.056976 280.023529,210.850098 267.467590,228.476913 
	C266.040222,230.480713 264.166687,232.166672 262.500000,234.000000 
"/>
<path fill="none" opacity="1.000000" stroke="#000000" stroke-linecap="round" stroke-linejoin="round" stroke-width="10.000000"
	d="
M371.500000,175.500000 
	C371.500000,216.833328 371.500000,258.166656 371.500000,299.500000 
"/>
<path fill="none" opacity="1.000000" stroke="#000000" stroke-linecap="round" stroke-linejoin="round" stroke-width="9.000000"
	d="
M211.500000,171.000000 
	C217.021759,172.122787 219.956360,176.294662 223.030365,180.477676 
	C235.743546,197.777344 247.820786,215.524200 260.868591,232.600403 
	C276.590424,253.176208 291.453033,274.415497 306.390106,295.577576 
	C309.091370,299.404602 312.447205,301.459290 316.500000,303.000000 
"/>
<path fill="none" opacity="1.000000" stroke="#000000" stroke-linecap="round" stroke-linejoin="round" stroke-width="8.000000"
	d="
M262.000000,236.500000 
	C254.968582,243.359467 249.798157,251.683411 244.037567,259.527588 
	C234.565521,272.425720 225.325012,285.494019 216.007904,298.505646 
	C214.384613,300.772614 211.654388,301.146698 209.500000,302.500000 
"/>
<path fill="none" opacity="1.000000" stroke="#000000" stroke-linecap="round" stroke-linejoin="round" stroke-width="8.000000"
	d="
M194.000000,234.000000 
	C170.839966,235.088394 147.666000,234.235321 124.499748,234.475540 
	C122.668335,234.494537 120.833336,234.166672 119.000000,234.000015 
"/>
<path fill="none" opacity="1.000000" stroke="#000000" stroke-linecap="round" stroke-linejoin="round" stroke-width="9.000000"
	d="
M419.000000,174.000000 
	C387.333344,174.000000 355.666656,174.000000 324.000000,174.000000 
"/>
<path fill="none" opacity="1.000000" stroke="#000000" stroke-linecap="round" stroke-linejoin="round" stroke-width="6.000000"
	d="
M474.500000,270.500000 
	C472.603210,270.960236 471.737335,269.454712 470.450806,268.571655 
	C469.134338,267.668121 467.842712,266.603241 466.004242,266.449463 
	C461.467926,266.070007 457.049133,268.529572 456.499969,272.000000 
	C455.930206,275.600708 459.073486,278.936615 464.509949,279.377502 
	C468.368225,279.690430 470.808472,281.708069 473.595551,283.877228 
	C475.162811,285.096985 474.270081,285.932495 474.250000,287.000000 
"/>
<path fill="none" opacity="1.000000" stroke="#000000" stroke-linecap="round" stroke-linejoin="round" stroke-width="6.000000"
	d="
M445.500000,267.500000 
	C445.500000,273.166656 445.472107,278.833527 445.509888,284.499939 
	C445.534943,288.256775 444.131317,291.406464 440.468445,292.381439 
	C436.931335,293.322968 433.686768,292.215881 432.250000,288.250000 
"/>
<path fill="none" opacity="1.000000" stroke="#000000" stroke-linecap="round" stroke-linejoin="round" stroke-width="5.000000"
	d="
M453.500000,287.000000 
	C454.416656,287.416656 455.509460,287.637970 456.222412,288.280609 
	C462.525208,293.962189 466.978027,294.051025 473.000000,288.500000 
"/>
</svg>